---
layout: post
title: "示例 Cue 文件"

tags: []
comments: false
author: ZexWoo
toc: true
---

```
REM DATE 2012
REM DISCID A40BE20D
REM COMMENT "ExactAudioCopy v1.3"
PERFORMER "Connie Talbot"
TITLE "Beautiful World"
REM COMPOSER ""
FILE "01. Count on Me.flac" WAVE
  TRACK 01 AUDIO
    TITLE "Count on Me"
    PERFORMER "Connie Talbot"
    REM COMPOSER ""
    ISRC HKG291200207
    INDEX 01 00:00:00
  TRACK 02 AUDIO
    TITLE "Let It Be"
    PERFORMER "Connie Talbot"
    REM COMPOSER ""
    ISRC HKG291200208
    INDEX 00 03:39:53
FILE "02. Let It Be.wav" WAVE
    INDEX 01 00:00:00
  TRACK 03 AUDIO
    TITLE "The Climb"
    PERFORMER "Connie Talbot"
    REM COMPOSER ""
    ISRC HKG291200209
    INDEX 00 03:56:66
FILE "03. The Climb.wav" WAVE
    INDEX 01 00:00:00
  TRACK 04 AUDIO
    TITLE "What the World Needs Now"
    PERFORMER "Connie Talbot"
    REM COMPOSER ""
    ISRC HKG291200210
    INDEX 00 03:35:22
FILE "04. What the World Needs Now.wav" WAVE
    INDEX 01 00:00:00
  TRACK 05 AUDIO
    TITLE "Fireflies"
    PERFORMER "Connie Talbot"
    REM COMPOSER ""
    ISRC HKG291200211
    INDEX 00 04:19:60
FILE "05. Fireflies.wav" WAVE
    INDEX 01 00:00:00
  TRACK 06 AUDIO
    TITLE "Beautiful World"
    PERFORMER "Connie Talbot"
    REM COMPOSER ""
    ISRC HKG291200212
    INDEX 00 03:03:40
FILE "06. Beautiful World.wav" WAVE
    INDEX 01 00:00:00
  TRACK 07 AUDIO
    TITLE "Amazing Grace"
    PERFORMER "Connie Talbot"
    REM COMPOSER ""
    ISRC HKG291200213
    INDEX 00 04:32:13
FILE "07. Amazing Grace.wav" WAVE
    INDEX 01 00:00:00
  TRACK 08 AUDIO
    TITLE "Pray"
    PERFORMER "Connie Talbot"
    REM COMPOSER ""
    ISRC HKG291200214
    INDEX 00 03:56:42
FILE "08. Pray.wav" WAVE
    INDEX 01 00:00:00
  TRACK 09 AUDIO
    TITLE "Gift of a Friend"
    PERFORMER "Connie Talbot"
    REM COMPOSER ""
    ISRC HKG291200215
    INDEX 00 03:29:36
FILE "09. Gift of a Friend.wav" WAVE
    INDEX 01 00:00:00
  TRACK 10 AUDIO
    TITLE "Imagine"
    PERFORMER "Connie Talbot"
    REM COMPOSER ""
    ISRC HKG291200216
    INDEX 00 03:21:40
FILE "10. Imagine.wav" WAVE
    INDEX 01 00:00:00
  TRACK 11 AUDIO
    TITLE "Colours of the Wind"
    PERFORMER "Connie Talbot"
    REM COMPOSER ""
    ISRC HKG291200217
    INDEX 00 03:38:74
FILE "11. Colours of the Wind.wav" WAVE
    INDEX 01 00:00:00
  TRACK 12 AUDIO
    TITLE "Heal the World"
    PERFORMER "Connie Talbot"
    REM COMPOSER ""
    ISRC HKG291200218
    INDEX 00 04:06:54
FILE "12. Heal the World.wav" WAVE
    INDEX 01 00:00:00
  TRACK 13 AUDIO
    TITLE "Hero"
    PERFORMER "Connie Talbot"
    REM COMPOSER ""
    ISRC HKG291200219
    INDEX 00 04:40:54
FILE "13. Hero.wav" WAVE
    INDEX 01 00:00:00
```

更多关于 Cue 的知识请见 [EAC 与 Cue 文件](https://zexwoo.github.io/eac_and_cue_files/)。